<?xml version="1.0" encoding="utf-8" standalone="no"?>
<!DOCTYPE svg PUBLIC "-//W3C//DTD SVG 1.1//EN"
  "http://www.w3.org/Graphics/SVG/1.1/DTD/svg11.dtd">
<!-- Created with matplotlib (https://matplotlib.org/) -->
<svg height="288pt" version="1.1" viewBox="0 0 432 288" width="432pt" xmlns="http://www.w3.org/2000/svg" xmlns:xlink="http://www.w3.org/1999/xlink">
 <defs>
  <style type="text/css">
*{stroke-linecap:butt;stroke-linejoin:round;}
  </style>
 </defs>
 <g id="figure_1">
  <g id="patch_1">
   <path d="M 0 288 
L 432 288 
L 432 0 
L 0 0 
z
" style="fill:#ffffff;"/>
  </g>
  <g id="axes_1">
   <g id="patch_2">
    <path d="M 54 252 
L 388.8 252 
L 388.8 34.56 
L 54 34.56 
z
" style="fill:#ffffff;"/>
   </g>
   <g id="matplotlib.axis_1">
    <g id="xtick_1">
     <g id="line2d_1">
      <defs>
       <path d="M 0 0 
L 0 3.5 
" id="ma494d65253" style="stroke:#000000;stroke-width:0.8;"/>
      </defs>
      <g>
       <use style="stroke:#000000;stroke-width:0.8;" x="68.608235" xlink:href="#ma494d65253" y="252"/>
      </g>
     </g>
     <g id="text_1">
      <!-- 0 -->
      <defs>
       <path d="M 31.78125 66.40625 
Q 24.171875 66.40625 20.328125 58.90625 
Q 16.5 51.421875 16.5 36.375 
Q 16.5 21.390625 20.328125 13.890625 
Q 24.171875 6.390625 31.78125 6.390625 
Q 39.453125 6.390625 43.28125 13.890625 
Q 47.125 21.390625 47.125 36.375 
Q 47.125 51.421875 43.28125 58.90625 
Q 39.453125 66.40625 31.78125 66.40625 
z
M 31.78125 74.21875 
Q 44.046875 74.21875 50.515625 64.515625 
Q 56.984375 54.828125 56.984375 36.375 
Q 56.984375 17.96875 50.515625 8.265625 
Q 44.046875 -1.421875 31.78125 -1.421875 
Q 19.53125 -1.421875 13.0625 8.265625 
Q 6.59375 17.96875 6.59375 36.375 
Q 6.59375 54.828125 13.0625 64.515625 
Q 19.53125 74.21875 31.78125 74.21875 
z
" id="DejaVuSans-48"/>
      </defs>
      <g transform="translate(65.426985 266.598437)scale(0.1 -0.1)">
       <use xlink:href="#DejaVuSans-48"/>
      </g>
     </g>
    </g>
    <g id="xtick_2">
     <g id="line2d_2">
      <g>
       <use style="stroke:#000000;stroke-width:0.8;" x="129.602951" xlink:href="#ma494d65253" y="252"/>
      </g>
     </g>
     <g id="text_2">
      <!-- 100 -->
      <defs>
       <path d="M 12.40625 8.296875 
L 28.515625 8.296875 
L 28.515625 63.921875 
L 10.984375 60.40625 
L 10.984375 69.390625 
L 28.421875 72.90625 
L 38.28125 72.90625 
L 38.28125 8.296875 
L 54.390625 8.296875 
L 54.390625 0 
L 12.40625 0 
z
" id="DejaVuSans-49"/>
      </defs>
      <g transform="translate(120.059201 266.598437)scale(0.1 -0.1)">
       <use xlink:href="#DejaVuSans-49"/>
       <use x="63.623047" xlink:href="#DejaVuSans-48"/>
       <use x="127.246094" xlink:href="#DejaVuSans-48"/>
      </g>
     </g>
    </g>
    <g id="xtick_3">
     <g id="line2d_3">
      <g>
       <use style="stroke:#000000;stroke-width:0.8;" x="190.597668" xlink:href="#ma494d65253" y="252"/>
      </g>
     </g>
     <g id="text_3">
      <!-- 200 -->
      <defs>
       <path d="M 19.1875 8.296875 
L 53.609375 8.296875 
L 53.609375 0 
L 7.328125 0 
L 7.328125 8.296875 
Q 12.9375 14.109375 22.625 23.890625 
Q 32.328125 33.6875 34.8125 36.53125 
Q 39.546875 41.84375 41.421875 45.53125 
Q 43.3125 49.21875 43.3125 52.78125 
Q 43.3125 58.59375 39.234375 62.25 
Q 35.15625 65.921875 28.609375 65.921875 
Q 23.96875 65.921875 18.8125 64.3125 
Q 13.671875 62.703125 7.8125 59.421875 
L 7.8125 69.390625 
Q 13.765625 71.78125 18.9375 73 
Q 24.125 74.21875 28.421875 74.21875 
Q 39.75 74.21875 46.484375 68.546875 
Q 53.21875 62.890625 53.21875 53.421875 
Q 53.21875 48.921875 51.53125 44.890625 
Q 49.859375 40.875 45.40625 35.40625 
Q 44.1875 33.984375 37.640625 27.21875 
Q 31.109375 20.453125 19.1875 8.296875 
z
" id="DejaVuSans-50"/>
      </defs>
      <g transform="translate(181.053918 266.598437)scale(0.1 -0.1)">
       <use xlink:href="#DejaVuSans-50"/>
       <use x="63.623047" xlink:href="#DejaVuSans-48"/>
       <use x="127.246094" xlink:href="#DejaVuSans-48"/>
      </g>
     </g>
    </g>
    <g id="xtick_4">
     <g id="line2d_4">
      <g>
       <use style="stroke:#000000;stroke-width:0.8;" x="251.592385" xlink:href="#ma494d65253" y="252"/>
      </g>
     </g>
     <g id="text_4">
      <!-- 300 -->
      <defs>
       <path d="M 40.578125 39.3125 
Q 47.65625 37.796875 51.625 33 
Q 55.609375 28.21875 55.609375 21.1875 
Q 55.609375 10.40625 48.1875 4.484375 
Q 40.765625 -1.421875 27.09375 -1.421875 
Q 22.515625 -1.421875 17.65625 -0.515625 
Q 12.796875 0.390625 7.625 2.203125 
L 7.625 11.71875 
Q 11.71875 9.328125 16.59375 8.109375 
Q 21.484375 6.890625 26.8125 6.890625 
Q 36.078125 6.890625 40.9375 10.546875 
Q 45.796875 14.203125 45.796875 21.1875 
Q 45.796875 27.640625 41.28125 31.265625 
Q 36.765625 34.90625 28.71875 34.90625 
L 20.21875 34.90625 
L 20.21875 43.015625 
L 29.109375 43.015625 
Q 36.375 43.015625 40.234375 45.921875 
Q 44.09375 48.828125 44.09375 54.296875 
Q 44.09375 59.90625 40.109375 62.90625 
Q 36.140625 65.921875 28.71875 65.921875 
Q 24.65625 65.921875 20.015625 65.03125 
Q 15.375 64.15625 9.8125 62.3125 
L 9.8125 71.09375 
Q 15.4375 72.65625 20.34375 73.4375 
Q 25.25 74.21875 29.59375 74.21875 
Q 40.828125 74.21875 47.359375 69.109375 
Q 53.90625 64.015625 53.90625 55.328125 
Q 53.90625 49.265625 50.4375 45.09375 
Q 46.96875 40.921875 40.578125 39.3125 
z
" id="DejaVuSans-51"/>
      </defs>
      <g transform="translate(242.048635 266.598437)scale(0.1 -0.1)">
       <use xlink:href="#DejaVuSans-51"/>
       <use x="63.623047" xlink:href="#DejaVuSans-48"/>
       <use x="127.246094" xlink:href="#DejaVuSans-48"/>
      </g>
     </g>
    </g>
    <g id="xtick_5">
     <g id="line2d_5">
      <g>
       <use style="stroke:#000000;stroke-width:0.8;" x="312.587101" xlink:href="#ma494d65253" y="252"/>
      </g>
     </g>
     <g id="text_5">
      <!-- 400 -->
      <defs>
       <path d="M 37.796875 64.3125 
L 12.890625 25.390625 
L 37.796875 25.390625 
z
M 35.203125 72.90625 
L 47.609375 72.90625 
L 47.609375 25.390625 
L 58.015625 25.390625 
L 58.015625 17.1875 
L 47.609375 17.1875 
L 47.609375 0 
L 37.796875 0 
L 37.796875 17.1875 
L 4.890625 17.1875 
L 4.890625 26.703125 
z
" id="DejaVuSans-52"/>
      </defs>
      <g transform="translate(303.043351 266.598437)scale(0.1 -0.1)">
       <use xlink:href="#DejaVuSans-52"/>
       <use x="63.623047" xlink:href="#DejaVuSans-48"/>
       <use x="127.246094" xlink:href="#DejaVuSans-48"/>
      </g>
     </g>
    </g>
    <g id="xtick_6">
     <g id="line2d_6">
      <g>
       <use style="stroke:#000000;stroke-width:0.8;" x="373.581818" xlink:href="#ma494d65253" y="252"/>
      </g>
     </g>
     <g id="text_6">
      <!-- 500 -->
      <defs>
       <path d="M 10.796875 72.90625 
L 49.515625 72.90625 
L 49.515625 64.59375 
L 19.828125 64.59375 
L 19.828125 46.734375 
Q 21.96875 47.46875 24.109375 47.828125 
Q 26.265625 48.1875 28.421875 48.1875 
Q 40.625 48.1875 47.75 41.5 
Q 54.890625 34.8125 54.890625 23.390625 
Q 54.890625 11.625 47.5625 5.09375 
Q 40.234375 -1.421875 26.90625 -1.421875 
Q 22.3125 -1.421875 17.546875 -0.640625 
Q 12.796875 0.140625 7.71875 1.703125 
L 7.71875 11.625 
Q 12.109375 9.234375 16.796875 8.0625 
Q 21.484375 6.890625 26.703125 6.890625 
Q 35.15625 6.890625 40.078125 11.328125 
Q 45.015625 15.765625 45.015625 23.390625 
Q 45.015625 31 40.078125 35.4375 
Q 35.15625 39.890625 26.703125 39.890625 
Q 22.75 39.890625 18.8125 39.015625 
Q 14.890625 38.140625 10.796875 36.28125 
z
" id="DejaVuSans-53"/>
      </defs>
      <g transform="translate(364.038068 266.598437)scale(0.1 -0.1)">
       <use xlink:href="#DejaVuSans-53"/>
       <use x="63.623047" xlink:href="#DejaVuSans-48"/>
       <use x="127.246094" xlink:href="#DejaVuSans-48"/>
      </g>
     </g>
    </g>
   </g>
   <g id="matplotlib.axis_2">
    <g id="ytick_1">
     <g id="line2d_7">
      <defs>
       <path d="M 0 0 
L -3.5 0 
" id="mcac2c68ec9" style="stroke:#000000;stroke-width:0.8;"/>
      </defs>
      <g>
       <use style="stroke:#000000;stroke-width:0.8;" x="54" xlink:href="#mcac2c68ec9" y="252"/>
      </g>
     </g>
     <g id="text_7">
      <!-- 0.0 -->
      <defs>
       <path d="M 10.6875 12.40625 
L 21 12.40625 
L 21 0 
L 10.6875 0 
z
" id="DejaVuSans-46"/>
      </defs>
      <g transform="translate(31.096875 255.799219)scale(0.1 -0.1)">
       <use xlink:href="#DejaVuSans-48"/>
       <use x="63.623047" xlink:href="#DejaVuSans-46"/>
       <use x="95.410156" xlink:href="#DejaVuSans-48"/>
      </g>
     </g>
    </g>
    <g id="ytick_2">
     <g id="line2d_8">
      <g>
       <use style="stroke:#000000;stroke-width:0.8;" x="54" xlink:href="#mcac2c68ec9" y="208.512"/>
      </g>
     </g>
     <g id="text_8">
      <!-- 0.2 -->
      <g transform="translate(31.096875 212.311219)scale(0.1 -0.1)">
       <use xlink:href="#DejaVuSans-48"/>
       <use x="63.623047" xlink:href="#DejaVuSans-46"/>
       <use x="95.410156" xlink:href="#DejaVuSans-50"/>
      </g>
     </g>
    </g>
    <g id="ytick_3">
     <g id="line2d_9">
      <g>
       <use style="stroke:#000000;stroke-width:0.8;" x="54" xlink:href="#mcac2c68ec9" y="165.024"/>
      </g>
     </g>
     <g id="text_9">
      <!-- 0.4 -->
      <g transform="translate(31.096875 168.823219)scale(0.1 -0.1)">
       <use xlink:href="#DejaVuSans-48"/>
       <use x="63.623047" xlink:href="#DejaVuSans-46"/>
       <use x="95.410156" xlink:href="#DejaVuSans-52"/>
      </g>
     </g>
    </g>
    <g id="ytick_4">
     <g id="line2d_10">
      <g>
       <use style="stroke:#000000;stroke-width:0.8;" x="54" xlink:href="#mcac2c68ec9" y="121.536"/>
      </g>
     </g>
     <g id="text_10">
      <!-- 0.6 -->
      <defs>
       <path d="M 33.015625 40.375 
Q 26.375 40.375 22.484375 35.828125 
Q 18.609375 31.296875 18.609375 23.390625 
Q 18.609375 15.53125 22.484375 10.953125 
Q 26.375 6.390625 33.015625 6.390625 
Q 39.65625 6.390625 43.53125 10.953125 
Q 47.40625 15.53125 47.40625 23.390625 
Q 47.40625 31.296875 43.53125 35.828125 
Q 39.65625 40.375 33.015625 40.375 
z
M 52.59375 71.296875 
L 52.59375 62.3125 
Q 48.875 64.0625 45.09375 64.984375 
Q 41.3125 65.921875 37.59375 65.921875 
Q 27.828125 65.921875 22.671875 59.328125 
Q 17.53125 52.734375 16.796875 39.40625 
Q 19.671875 43.65625 24.015625 45.921875 
Q 28.375 48.1875 33.59375 48.1875 
Q 44.578125 48.1875 50.953125 41.515625 
Q 57.328125 34.859375 57.328125 23.390625 
Q 57.328125 12.15625 50.6875 5.359375 
Q 44.046875 -1.421875 33.015625 -1.421875 
Q 20.359375 -1.421875 13.671875 8.265625 
Q 6.984375 17.96875 6.984375 36.375 
Q 6.984375 53.65625 15.1875 63.9375 
Q 23.390625 74.21875 37.203125 74.21875 
Q 40.921875 74.21875 44.703125 73.484375 
Q 48.484375 72.75 52.59375 71.296875 
z
" id="DejaVuSans-54"/>
      </defs>
      <g transform="translate(31.096875 125.335219)scale(0.1 -0.1)">
       <use xlink:href="#DejaVuSans-48"/>
       <use x="63.623047" xlink:href="#DejaVuSans-46"/>
       <use x="95.410156" xlink:href="#DejaVuSans-54"/>
      </g>
     </g>
    </g>
    <g id="ytick_5">
     <g id="line2d_11">
      <g>
       <use style="stroke:#000000;stroke-width:0.8;" x="54" xlink:href="#mcac2c68ec9" y="78.048"/>
      </g>
     </g>
     <g id="text_11">
      <!-- 0.8 -->
      <defs>
       <path d="M 31.78125 34.625 
Q 24.75 34.625 20.71875 30.859375 
Q 16.703125 27.09375 16.703125 20.515625 
Q 16.703125 13.921875 20.71875 10.15625 
Q 24.75 6.390625 31.78125 6.390625 
Q 38.8125 6.390625 42.859375 10.171875 
Q 46.921875 13.96875 46.921875 20.515625 
Q 46.921875 27.09375 42.890625 30.859375 
Q 38.875 34.625 31.78125 34.625 
z
M 21.921875 38.8125 
Q 15.578125 40.375 12.03125 44.71875 
Q 8.5 49.078125 8.5 55.328125 
Q 8.5 64.0625 14.71875 69.140625 
Q 20.953125 74.21875 31.78125 74.21875 
Q 42.671875 74.21875 48.875 69.140625 
Q 55.078125 64.0625 55.078125 55.328125 
Q 55.078125 49.078125 51.53125 44.71875 
Q 48 40.375 41.703125 38.8125 
Q 48.828125 37.15625 52.796875 32.3125 
Q 56.78125 27.484375 56.78125 20.515625 
Q 56.78125 9.90625 50.3125 4.234375 
Q 43.84375 -1.421875 31.78125 -1.421875 
Q 19.734375 -1.421875 13.25 4.234375 
Q 6.78125 9.90625 6.78125 20.515625 
Q 6.78125 27.484375 10.78125 32.3125 
Q 14.796875 37.15625 21.921875 38.8125 
z
M 18.3125 54.390625 
Q 18.3125 48.734375 21.84375 45.5625 
Q 25.390625 42.390625 31.78125 42.390625 
Q 38.140625 42.390625 41.71875 45.5625 
Q 45.3125 48.734375 45.3125 54.390625 
Q 45.3125 60.0625 41.71875 63.234375 
Q 38.140625 66.40625 31.78125 66.40625 
Q 25.390625 66.40625 21.84375 63.234375 
Q 18.3125 60.0625 18.3125 54.390625 
z
" id="DejaVuSans-56"/>
      </defs>
      <g transform="translate(31.096875 81.847219)scale(0.1 -0.1)">
       <use xlink:href="#DejaVuSans-48"/>
       <use x="63.623047" xlink:href="#DejaVuSans-46"/>
       <use x="95.410156" xlink:href="#DejaVuSans-56"/>
      </g>
     </g>
    </g>
    <g id="ytick_6">
     <g id="line2d_12">
      <g>
       <use style="stroke:#000000;stroke-width:0.8;" x="54" xlink:href="#mcac2c68ec9" y="34.56"/>
      </g>
     </g>
     <g id="text_12">
      <!-- 1.0 -->
      <g transform="translate(31.096875 38.359219)scale(0.1 -0.1)">
       <use xlink:href="#DejaVuSans-49"/>
       <use x="63.623047" xlink:href="#DejaVuSans-46"/>
       <use x="95.410156" xlink:href="#DejaVuSans-48"/>
      </g>
     </g>
    </g>
   </g>
   <g id="line2d_13">
    <path clip-path="url(#p4e2f687b9f)" d="M 69.218182 143.28 
L 373.581818 143.28 
L 373.581818 143.28 
" style="fill:none;stroke:#1f77b4;stroke-linecap:square;stroke-width:1.5;"/>
   </g>
   <g id="line2d_14">
    <path clip-path="url(#p4e2f687b9f)" d="M 69.218182 34.56 
L 69.828129 143.28 
L 70.438076 107.04 
L 71.048023 88.92 
L 71.65797 121.536 
L 72.267918 107.04 
L 72.877865 96.685714 
L 73.487812 116.1 
L 74.097759 131.2 
L 74.707706 121.536 
L 75.927601 143.28 
L 77.147495 127.748571 
L 78.367389 143.28 
L 78.977336 136.884706 
L 79.587284 143.28 
L 80.197231 137.557895 
L 81.417125 148.457143 
L 82.637019 157.46087 
L 83.246967 161.4 
L 84.466861 151.643077 
L 85.686755 158.811429 
L 86.296702 154.526897 
L 87.516597 160.815484 
L 88.126544 156.87 
L 88.736491 159.752727 
L 90.566333 149.32 
L 91.17628 146.218378 
L 92.396174 151.643077 
L 93.006121 148.716 
L 94.226016 153.634286 
L 94.835963 150.865116 
L 95.44591 153.163636 
L 96.055857 150.528 
L 96.665804 152.733913 
L 97.885699 147.81 
L 99.105593 151.9776 
L 99.71554 149.675294 
L 101.545382 155.36 
L 103.375223 149.002105 
L 103.98517 147.028966 
L 105.205065 150.528 
L 107.644853 143.28 
L 108.864748 146.574545 
L 111.304536 140.173714 
L 112.524431 143.28 
L 113.134378 141.790685 
L 114.964219 146.141053 
L 115.574167 144.691948 
L 116.184114 146.067692 
L 116.794061 144.656203 
L 118.013955 147.306667 
L 118.623902 145.931707 
L 119.23385 147.209639 
L 119.843797 145.868571 
L 120.453744 147.117176 
L 121.063691 145.808372 
L 121.673638 147.028966 
L 122.283585 145.750909 
L 124.113427 149.253626 
L 124.723374 148.006957 
L 125.333321 149.125161 
L 127.163163 145.545 
L 127.77311 146.642474 
L 129.602951 143.28 
L 130.212899 144.356436 
L 131.432793 142.224466 
L 133.262634 145.331321 
L 134.482529 143.28 
L 135.092476 144.277431 
L 136.31237 142.300541 
L 137.532265 144.242124 
L 139.362106 141.405517 
L 140.582 143.28 
L 141.191948 142.366387 
L 142.411842 144.178512 
L 143.021789 143.28 
L 144.851631 145.88928 
L 147.901366 141.607385 
L 148.511314 142.450076 
L 149.731208 140.827669 
L 150.951102 142.474667 
L 151.561049 141.681176 
L 152.170997 142.486423 
L 152.780944 141.704348 
L 153.390891 142.497842 
L 154.610785 140.966809 
L 155.220732 141.748732 
L 157.050574 139.531034 
L 158.270468 141.061224 
L 158.880415 140.341622 
L 162.540098 144.691948 
L 163.150046 145.384258 
L 163.759993 144.673846 
L 166.809729 148.006957 
L 168.029623 146.614969 
L 168.63957 147.257561 
L 169.249517 146.574545 
L 170.469412 147.837126 
L 172.9092 145.187368 
L 177.17883 149.387865 
L 177.788778 149.961117 
L 179.618619 148.058901 
L 180.838513 149.188696 
L 182.668355 147.349733 
L 183.278302 147.906383 
L 183.888249 147.306667 
L 184.498196 147.857684 
L 185.108144 147.264503 
L 186.328038 148.349845 
L 186.937985 147.763299 
L 187.547932 148.297846 
L 190.597668 145.4544 
L 191.207615 145.984478 
L 191.817562 145.432871 
L 192.42751 145.957833 
L 193.037457 145.411765 
L 194.257351 146.446602 
L 194.867298 145.906087 
L 195.477245 146.416154 
L 196.087193 145.880957 
L 196.69714 146.386286 
L 197.307087 145.856303 
L 199.746876 147.83107 
L 200.96677 146.787097 
L 202.186664 147.747945 
L 204.016506 146.218378 
L 205.846347 147.6288 
L 206.456294 147.128496 
L 207.066242 147.590485 
L 208.286136 146.603319 
L 208.896083 147.061565 
L 209.50603 146.574545 
L 210.725925 147.479485 
L 211.945819 146.518468 
L 213.77566 147.848067 
L 214.385608 147.374059 
L 215.605502 148.242324 
L 216.215449 147.772562 
L 216.825396 148.201481 
L 218.045291 147.273796 
L 218.655238 147.699512 
L 219.875132 146.787097 
L 220.485079 147.209639 
L 221.095026 146.75904 
L 223.534815 148.416378 
L 225.364657 147.087315 
L 225.974604 147.493953 
L 226.584551 147.057915 
L 227.194498 147.461538 
L 227.804445 147.028966 
L 228.414392 147.429618 
L 229.02434 147.000456 
L 229.634287 147.398182 
L 230.244234 146.972377 
L 231.464128 147.759101 
L 235.123811 145.271209 
L 238.783494 147.566452 
L 239.393441 147.162857 
L 240.003389 147.535943 
L 240.613336 147.135319 
L 241.83323 147.873803 
L 243.053124 147.081399 
L 244.882966 148.170519 
L 245.492913 147.778759 
L 246.712807 148.492603 
L 247.322755 148.103754 
L 247.932702 148.457143 
L 249.152596 147.687568 
L 250.37249 148.387651 
L 250.982438 148.006957 
L 251.592385 148.3536 
L 252.202332 147.975548 
L 252.812279 148.32 
L 254.032173 147.571579 
L 255.862015 148.592052 
L 257.081909 147.853981 
L 257.691856 148.189935 
L 258.301804 147.824566 
L 258.911751 148.158462 
L 261.961487 146.366688 
L 263.181381 147.028966 
L 265.011222 145.981118 
L 266.231117 146.635556 
L 268.060958 145.607339 
L 271.110694 147.209639 
L 272.940536 146.200836 
L 274.770377 147.139882 
L 277.210166 145.823158 
L 278.43006 146.440465 
L 279.649954 145.793757 
L 282.089743 147.007543 
L 282.69969 146.687179 
L 283.919585 147.283853 
L 284.529532 146.965424 
L 285.139479 147.261296 
L 285.749426 146.944719 
L 286.96932 147.53162 
L 290.019056 145.975537 
L 292.458845 147.131117 
L 293.068792 146.825217 
L 296.118528 148.235067 
L 296.728475 147.931123 
L 297.338422 148.20864 
L 297.948369 147.906383 
L 298.558317 148.182493 
L 299.168264 147.881905 
L 300.388158 148.429895 
L 300.998105 148.131024 
L 301.608052 148.402932 
L 302.218 148.105692 
L 302.827947 148.37625 
L 304.047841 147.786528 
L 304.657788 148.055814 
L 305.267735 147.763299 
L 305.877683 148.03126 
L 307.707524 147.162857 
L 308.317471 147.429618 
L 311.367207 146.011658 
L 312.587101 146.5416 
L 313.806996 145.984478 
L 314.416943 146.247543 
L 315.02689 145.971089 
L 315.636837 146.232889 
L 316.246784 145.957833 
L 316.856732 146.218378 
L 319.906467 144.863301 
L 322.956203 146.147914 
L 324.176098 145.615274 
L 325.395992 146.120665 
L 327.225833 145.331321 
L 330.275569 146.574545 
L 330.885516 146.314047 
L 333.325305 147.288111 
L 333.935252 147.028966 
L 335.155147 147.509382 
L 336.375041 146.994806 
L 337.594935 147.47102 
L 340.034724 146.45609 
L 340.644671 146.692735 
L 341.254618 146.441879 
L 343.694407 147.378093 
L 344.304354 147.128496 
L 345.524248 147.590485 
L 346.134196 147.342066 
L 347.35409 147.800088 
L 347.964037 147.552838 
L 349.183931 148.006957 
L 351.013773 147.271879 
L 352.843615 147.946094 
L 354.063509 147.461538 
L 355.283403 147.906383 
L 355.89335 147.665732 
L 356.503298 147.88678 
L 357.723192 147.408608 
L 359.553033 148.066415 
L 360.772928 147.592484 
L 361.382875 147.81 
L 361.992822 147.574553 
L 363.212716 148.006957 
L 365.042558 147.306667 
L 365.652505 147.521643 
L 368.702241 146.373659 
L 369.312188 146.587911 
L 369.922135 146.361134 
L 371.14203 146.787097 
L 371.751977 146.561288 
L 372.361924 146.773012 
L 373.581818 146.32416 
L 373.581818 146.32416 
" style="fill:none;stroke:#ff0000;stroke-linecap:square;stroke-width:1.5;"/>
   </g>
   <g id="patch_3">
    <path d="M 54 252 
L 54 34.56 
" style="fill:none;stroke:#000000;stroke-linecap:square;stroke-linejoin:miter;stroke-width:0.8;"/>
   </g>
   <g id="patch_4">
    <path d="M 388.8 252 
L 388.8 34.56 
" style="fill:none;stroke:#000000;stroke-linecap:square;stroke-linejoin:miter;stroke-width:0.8;"/>
   </g>
   <g id="patch_5">
    <path d="M 54 252 
L 388.8 252 
" style="fill:none;stroke:#000000;stroke-linecap:square;stroke-linejoin:miter;stroke-width:0.8;"/>
   </g>
   <g id="patch_6">
    <path d="M 54 34.56 
L 388.8 34.56 
" style="fill:none;stroke:#000000;stroke-linecap:square;stroke-linejoin:miter;stroke-width:0.8;"/>
   </g>
  </g>
 </g>
 <defs>
  <clipPath id="p4e2f687b9f">
   <rect height="217.44" width="334.8" x="54" y="34.56"/>
  </clipPath>
 </defs>
</svg>
