<svg id="Layer_1" data-name="Layer 1" xmlns="http://www.w3.org/2000/svg" viewBox="0 0 387.7 113.75"><defs><style>.cls-1{fill:#00b3b3;}</style></defs><path class="cls-1" d="M307.4,151.32H287.49v53.46h-11.8V151.32H255.78V140.26H307.4Zm38.53,33.46H311.36c.83,7.37,5.44,12,13,12,5.07,0,8.67-2.21,10.51-5.81h11.06c-2.67,8.12-10.88,14.84-21.75,14.84-14.29,0-23.6-10.69-23.6-24s9.59-23.78,22.77-23.78S347,168,345.93,184.78ZM334.87,177c-.74-6.55-5.26-10.33-11.71-10.33-6.17,0-10.87,3.87-11.7,10.33Zm62.95-18H385.29l-17,18.07h-2.95V138.42H354v66.36h11.43V190l5.16-5,14.19,19.73h14L379.2,179.25Zm34.66-1a14.24,14.24,0,0,0-13.27,8.2h-2.95v-7.19H404.83v45.72h11.43v-27.1c0-5.44,2.95-9.58,9.68-9.58s9.67,3.77,9.67,9.58v27.1H447V172.89C447,164.59,441.61,158.05,432.48,158.05Zm69.59,1v45.72H490.64v-8.3h-2.95c-2.76,5.72-7.56,9.31-13.55,9.31-11.7,0-19.45-10.5-19.45-23.87,0-13.55,7.75-23.87,19.45-23.87,6,0,10.79,3.59,13.55,9.31h2.95v-8.3Zm-11.43,22.86c0-8.57-4.42-14.56-12.16-14.56s-12.36,5.8-12.36,14.56,4.61,14.56,12.36,14.56S490.64,190.49,490.64,181.92Zm-332.13,17a60.12,60.12,0,0,1-24.08,15.53,56.93,56.93,0,0,0,13.13,8.38,74,74,0,0,0,18.72-13.26A83.16,83.16,0,0,1,158.51,198.91Zm30.12-42.15V116.82A56.63,56.63,0,0,0,175,114.25v43.41a52.4,52.4,0,0,0,7.88,27.69A73.25,73.25,0,0,0,188.63,156.76Zm-33.84,35.35a79.81,79.81,0,0,1-5.52-15h0a39.18,39.18,0,0,1-28.56,20,56.83,56.83,0,0,0,7.79,11.41A52.9,52.9,0,0,0,154.79,192.11ZM196,119.73v38.83c0,6.91.5,12,6.75,19.69a32.24,32.24,0,0,0,22.18,12.13A57,57,0,0,0,196,119.73Zm-36.19,65.62a52.31,52.31,0,0,0,7.88-27.69V114.25A57,57,0,0,0,154,116.81v39.95A73.43,73.43,0,0,0,159.76,185.35Zm11.55,18.81a74.89,74.89,0,0,0,7.81-11.24,59.92,59.92,0,0,1-7.81-14.6,60,60,0,0,1-7.82,14.6A74.23,74.23,0,0,0,171.31,204.16Zm-14.56,22a57.28,57.28,0,0,0,29.11,0,81.47,81.47,0,0,1-14.55-11.23A81.54,81.54,0,0,1,156.75,226.12Zm-16.84-47.87c6.25-7.68,6.75-12.78,6.75-19.69V119.73a57,57,0,0,0-28.93,70.65A32.24,32.24,0,0,0,139.91,178.25Zm53.44-1.09a80.55,80.55,0,0,1-5.53,15,52.89,52.89,0,0,0,26.3,16.49,57.67,57.67,0,0,0,7.79-11.41A39.16,39.16,0,0,1,193.35,177.16Zm-9.25,21.75a81.28,81.28,0,0,1-7.77,10.65,73.87,73.87,0,0,0,18.73,13.26,57.08,57.08,0,0,0,13.12-8.38A60.12,60.12,0,0,1,184.1,198.91Z" transform="translate(-114.37 -114.25)"/></svg>